<svg width="20" height="20" viewBox="0 0 20 20" fill="none" xmlns="http://www.w3.org/2000/svg">
                    <path fill-rule="evenodd" clip-rule="evenodd" d="M17.7344 10.3125H19.1406C19.2578 10.3125 19.375 10.4297 19.375 10.5469V14.7656C19.375 14.9121 19.2578 15 19.1406 15H18.5016L17.5 13.9984V10.5469C17.5 10.4297 17.5879 10.3125 17.7344 10.3125ZM16.5625 13.0609V10.5469C16.5625 10.4297 16.4453 10.3125 16.3281 10.3125H14.9219C14.7754 10.3125 14.6875 10.4297 14.6875 10.5469V11.1859L16.5625 13.0609ZM11.457 10.3125L13.75 12.6055V14.5312C13.75 14.7949 13.5156 15 13.2812 15H2.03125C1.24023 15 0.625 14.3848 0.625 13.5938V11.7188C0.625 10.957 1.24023 10.3125 2.03125 10.3125H11.457ZM14.6875 13.543L16.1445 15H14.9219C14.7754 15 14.6875 14.9121 14.6875 14.7656V13.543ZM16.5625 2.08008C16.5625 2.28516 16.6504 2.46094 16.8262 2.57812C18.4082 3.63281 19.375 5.41992 19.375 7.32422V8.20312C19.375 8.34961 19.2578 8.4375 19.1406 8.4375H17.7344C17.5879 8.4375 17.5 8.34961 17.5 8.20312V7.32422C17.5 5.85938 16.7383 4.48242 15.5078 3.69141C14.9805 3.33984 14.6875 2.72461 14.6875 2.08008V0.234375C14.6875 0.117188 14.7754 0 14.9219 0H16.3281C16.4453 0 16.5625 0.117188 16.5625 0.234375V2.08008ZM7.1875 13.5938H12.3438V11.7188H7.1875V13.5938ZM13.75 2.08008C13.75 2.92969 14.1895 3.66211 14.8926 4.16016C15.9473 4.89258 16.5625 6.06445 16.5625 7.32422V8.20312C16.5625 8.34961 16.4453 8.4375 16.3281 8.4375H14.9219C14.7754 8.4375 14.6875 8.34961 14.6875 8.20312V7.32422C14.6875 6.5332 14.2773 5.77148 13.6328 5.33203C12.5781 4.57031 11.875 3.48633 11.875 2.19727V0.234375C11.875 0.117188 11.9629 0 12.1094 0H13.5156C13.6328 0 13.75 0.117188 13.75 0.234375V2.08008Z"></path>
                    <rect x="1.14551" y="2.3584" width="1.66667" height="23.3325" transform="rotate(-45 1.14551 2.3584)"></rect>
</svg>